<svg width="44" height="44" viewBox="0 0 44 44" fill="none" xmlns="http://www.w3.org/2000/svg">
<rect width="44" height="44" rx="22" fill="#F26CF9"/>
<path d="M28.875 13.75H26.8125V13.0625C26.8125 12.8802 26.7401 12.7053 26.6111 12.5764C26.4822 12.4474 26.3073 12.375 26.125 12.375C25.9427 12.375 25.7678 12.4474 25.6389 12.5764C25.5099 12.7053 25.4375 12.8802 25.4375 13.0625V13.75H18.5625V13.0625C18.5625 12.8802 18.4901 12.7053 18.3611 12.5764C18.2322 12.4474 18.0573 12.375 17.875 12.375C17.6927 12.375 17.5178 12.4474 17.3889 12.5764C17.2599 12.7053 17.1875 12.8802 17.1875 13.0625V13.75H15.125C14.7603 13.75 14.4106 13.8949 14.1527 14.1527C13.8949 14.4106 13.75 14.7603 13.75 15.125V28.875C13.75 29.2397 13.8949 29.5894 14.1527 29.8473C14.4106 30.1051 14.7603 30.25 15.125 30.25H28.875C29.2397 30.25 29.5894 30.1051 29.8473 29.8473C30.1051 29.5894 30.25 29.2397 30.25 28.875V15.125C30.25 14.7603 30.1051 14.4106 29.8473 14.1527C29.5894 13.8949 29.2397 13.75 28.875 13.75ZM17.1875 15.125V15.8125C17.1875 15.9948 17.2599 16.1697 17.3889 16.2986C17.5178 16.4276 17.6927 16.5 17.875 16.5C18.0573 16.5 18.2322 16.4276 18.3611 16.2986C18.4901 16.1697 18.5625 15.9948 18.5625 15.8125V15.125H25.4375V15.8125C25.4375 15.9948 25.5099 16.1697 25.6389 16.2986C25.7678 16.4276 25.9427 16.5 26.125 16.5C26.3073 16.5 26.4822 16.4276 26.6111 16.2986C26.7401 16.1697 26.8125 15.9948 26.8125 15.8125V15.125H28.875V17.875H15.125V15.125H17.1875ZM28.875 28.875H15.125V19.25H28.875V28.875ZM23.375 24.0625C23.375 24.3344 23.2944 24.6003 23.1433 24.8264C22.9922 25.0525 22.7774 25.2288 22.5262 25.3328C22.2749 25.4369 21.9985 25.4641 21.7318 25.4111C21.465 25.358 21.22 25.2271 21.0277 25.0348C20.8354 24.8425 20.7045 24.5975 20.6514 24.3307C20.5984 24.064 20.6256 23.7876 20.7297 23.5363C20.8337 23.2851 21.01 23.0703 21.2361 22.9192C21.4622 22.7681 21.7281 22.6875 22 22.6875C22.3647 22.6875 22.7144 22.8324 22.9723 23.0902C23.2301 23.3481 23.375 23.6978 23.375 24.0625Z" fill="white"/>
</svg>
