<svg width="45" height="44" viewBox="0 0 45 44" fill="none" xmlns="http://www.w3.org/2000/svg">
<rect x="0.333313" width="44" height="44" rx="22" fill="#F26CF9"/>
<path d="M26.2572 19.4511C26.3211 19.5149 26.3719 19.5908 26.4064 19.6742C26.441 19.7577 26.4589 19.8472 26.4589 19.9375C26.4589 20.0278 26.441 20.1173 26.4064 20.2008C26.3719 20.2842 26.3211 20.3601 26.2572 20.4239L21.4447 25.2364C21.3809 25.3003 21.305 25.351 21.2216 25.3856C21.1381 25.4202 21.0487 25.438 20.9583 25.438C20.868 25.438 20.7785 25.4202 20.695 25.3856C20.6116 25.351 20.5358 25.3003 20.4719 25.2364L18.4094 23.1739C18.2804 23.0449 18.2079 22.8699 18.2079 22.6875C18.2079 22.5051 18.2804 22.3301 18.4094 22.2011C18.5384 22.0721 18.7134 21.9996 18.8958 21.9996C19.0783 21.9996 19.2532 22.0721 19.3822 22.2011L20.9583 23.778L25.2844 19.4511C25.3483 19.3872 25.4241 19.3365 25.5075 19.3019C25.591 19.2673 25.6805 19.2495 25.7708 19.2495C25.8612 19.2495 25.9506 19.2673 26.0341 19.3019C26.1175 19.3365 26.1934 19.3872 26.2572 19.4511ZM30.5833 15.125V28.875C30.5833 29.2397 30.4384 29.5894 30.1806 29.8473C29.9227 30.1051 29.573 30.25 29.2083 30.25H15.4583C15.0936 30.25 14.7439 30.1051 14.486 29.8473C14.2282 29.5894 14.0833 29.2397 14.0833 28.875V15.125C14.0833 14.7603 14.2282 14.4106 14.486 14.1527C14.7439 13.8949 15.0936 13.75 15.4583 13.75H29.2083C29.573 13.75 29.9227 13.8949 30.1806 14.1527C30.4384 14.4106 30.5833 14.7603 30.5833 15.125ZM29.2083 28.875V15.125H15.4583V28.875H29.2083Z" fill="white"/>
</svg>
