<svg width="45" height="44" viewBox="0 0 45 44" fill="none" xmlns="http://www.w3.org/2000/svg">
<rect x="0.666626" width="44" height="44" rx="22" fill="#F26CF9"/>
<path d="M31.6041 19.9375C31.7865 19.9375 31.9613 19.8651 32.0903 19.7361C32.2192 19.6072 32.2916 19.4323 32.2916 19.25V16.5C32.2916 16.1353 32.1468 15.7856 31.8889 15.5277C31.631 15.2699 31.2813 15.125 30.9166 15.125H14.4166C14.052 15.125 13.7022 15.2699 13.4444 15.5277C13.1865 15.7856 13.0416 16.1353 13.0416 16.5V19.25C13.0416 19.4323 13.1141 19.6072 13.243 19.7361C13.3719 19.8651 13.5468 19.9375 13.7291 19.9375C14.2761 19.9375 14.8007 20.1548 15.1875 20.5416C15.5743 20.9284 15.7916 21.453 15.7916 22C15.7916 22.547 15.5743 23.0716 15.1875 23.4584C14.8007 23.8452 14.2761 24.0625 13.7291 24.0625C13.5468 24.0625 13.3719 24.1349 13.243 24.2639C13.1141 24.3928 13.0416 24.5677 13.0416 24.75V27.5C13.0416 27.8647 13.1865 28.2144 13.4444 28.4723C13.7022 28.7301 14.052 28.875 14.4166 28.875H30.9166C31.2813 28.875 31.631 28.7301 31.8889 28.4723C32.1468 28.2144 32.2916 27.8647 32.2916 27.5V24.75C32.2916 24.5677 32.2192 24.3928 32.0903 24.2639C31.9613 24.1349 31.7865 24.0625 31.6041 24.0625C31.0571 24.0625 30.5325 23.8452 30.1457 23.4584C29.7589 23.0716 29.5416 22.547 29.5416 22C29.5416 21.453 29.7589 20.9284 30.1457 20.5416C30.5325 20.1548 31.0571 19.9375 31.6041 19.9375ZM14.4166 25.3687C15.1937 25.211 15.8923 24.7894 16.3941 24.1754C16.8959 23.5615 17.1701 22.7929 17.1701 22C17.1701 21.2071 16.8959 20.4385 16.3941 19.8246C15.8923 19.2106 15.1937 18.789 14.4166 18.6313V16.5H19.2291V27.5H14.4166V25.3687ZM30.9166 25.3687V27.5H20.6041V16.5H30.9166V18.6313C30.1396 18.789 29.4409 19.2106 28.9391 19.8246C28.4373 20.4385 28.1632 21.2071 28.1632 22C28.1632 22.7929 28.4373 23.5615 28.9391 24.1754C29.4409 24.7894 30.1396 25.211 30.9166 25.3687Z" fill="white"/>
</svg>
